<svg xmlns="http://www.w3.org/2000/svg" viewBox="0 0 64 64" width="64" height="64" fill="none">
  <defs>
    <linearGradient id="favBg" x1="6" y1="6" x2="58" y2="58" gradientUnits="userSpaceOnUse">
      <stop stop-color="#10152B"/>
      <stop offset="1" stop-color="#08101F"/>
    </linearGradient>
    <linearGradient id="outerRing" x1="17" y1="16" x2="50" y2="49" gradientUnits="userSpaceOnUse">
      <stop stop-color="#73E1FF"/>
      <stop offset=".52" stop-color="#7E92FF"/>
      <stop offset="1" stop-color="#A58BFF"/>
    </linearGradient>
    <linearGradient id="innerRing" x1="23" y1="22" x2="44" y2="43" gradientUnits="userSpaceOnUse">
      <stop stop-color="#C6B4FF"/>
      <stop offset="1" stop-color="#9F89F2"/>
    </linearGradient>
  </defs>
  <rect x="6" y="6" width="52" height="52" rx="16" fill="url(#favBg)"/>
  <path d="M18.5 23.5C21.5 18.3 27.4 15.1 33.5 15.1C39 15.1 44.1 17.1 47.8 20.8" stroke="url(#outerRing)" stroke-width="6.8" stroke-linecap="square"/>
  <path d="M49.2 24.1C51.8 28.2 53.2 33.1 53.1 38.2C52.9 44.1 50.5 49.4 46.5 53.2" stroke="url(#outerRing)" stroke-width="6.8" stroke-linecap="square"/>
  <path d="M42.8 54.6C38.6 56.9 33.8 58 28.9 57.6C22.8 57.1 17.3 54.2 13.6 49.3" stroke="url(#outerRing)" stroke-width="6.8" stroke-linecap="square"/>

  <path d="M25.9 21.4C29.1 19.4 32.8 18.5 36.6 18.8C40.3 19 43.8 20.4 46.6 22.8L46.4 32.3C43.9 32.4 41.6 33.8 40.2 35.8C38.8 34.3 38.1 32.3 38.2 30.1C38.4 27 37.5 24.2 35.3 22.3C32.3 19.8 28.5 19.2 25.9 21.4Z" fill="url(#innerRing)" stroke="#D8CCFF" stroke-width=".7"/>
  <path d="M42.5 37.2C43.6 39.9 43.7 43 42.9 45.9C40.5 47.7 37.7 48.8 34.6 49C30.4 49.4 26.5 48.2 23.2 45.7L26.2 38.6C28.4 40.7 31.2 41.8 34.1 41.8C37.4 41.8 40.4 40.1 42.5 37.2Z" fill="url(#innerRing)" stroke="#D8CCFF" stroke-width=".7"/>
  <path d="M21.2 39.8C19.5 36.8 18.8 33.4 19.3 29.9C19.9 26 22 22.5 25.2 20.1L30.8 26.8C28.2 28.4 26.4 30.8 25.5 33.5C24.8 35.9 25 38.6 26.1 40.9L21.2 39.8Z" fill="url(#innerRing)" stroke="#D8CCFF" stroke-width=".7"/>

  <circle cx="32" cy="32" r="7.6" fill="#091423" stroke="#7FE1FF" stroke-opacity=".45" stroke-width="1.4"/>
  <rect x="27.4" y="30.8" width="9.2" height="2.4" rx="1.2" fill="#F2FBFF" fill-opacity=".78"/>
  <circle cx="48.3" cy="16.5" r="1.2" fill="#9A86FF"/>
  <path d="M50.6 13.3L51.8 16.9L55.5 18.1L51.8 19.3L50.6 22.9L49.4 19.3L45.8 18.1L49.4 16.9L50.6 13.3Z" fill="#F7FAFF"/>
</svg>
